<svg width="105" height="44" viewBox="0 0 105 44" fill="none" xmlns="http://www.w3.org/2000/svg">
<path fill-rule="evenodd" clip-rule="evenodd" d="M6.97915 0H0V6.66189V17.6065V22.5236V27.9166V29.1855V29.1855H6.97915V29.1855H11.6957C11.7097 29.1855 11.7237 29.1855 11.7377 29.1855C11.7517 29.1855 11.7657 29.1855 11.7796 29.1855H16.4956V29.1862H23.4752V29.1855H23.4753V22.5236H23.4752V17.765H23.4743C23.475 17.7122 23.4753 17.6594 23.4753 17.6065C23.4753 11.2116 18.2202 6.02745 11.7377 6.02745C10.0437 6.02745 8.43361 6.38142 6.97915 7.01849V6.66189V0ZM16.4971 17.6068C16.4971 20.1995 14.3665 22.3013 11.7383 22.3013C9.11005 22.3013 6.97944 20.1995 6.97944 17.6068C6.97944 15.014 9.11005 12.9122 11.7383 12.9122C14.3665 12.9122 16.4971 15.014 16.4971 17.6068ZM0 31.1048L6.97944 31.1048C6.97968 33.7329 9.1102 35.8632 11.7383 35.8632C14.3664 35.8632 16.4969 33.7329 16.4971 31.1048L23.4753 31.1048C23.4753 37.5841 18.2255 42.8372 11.7474 42.8425H11.7279C5.24988 42.8372 0 37.5841 0 31.1048Z" fill="#FF7EA4"/>
<path d="M43.1028 29.1184H46.7961V13.9563H43.1028V19.8959H37.3577V13.9563H33.6643V29.1184H37.3577V22.8764H43.1028V29.1184Z" fill="#5A5A5A"/>
<path d="M61.3631 17.0665H57.6697V23.6108C57.6697 25.2522 56.7842 26.1594 55.3371 26.1594C53.9548 26.1594 53.0261 25.2522 53.0261 23.6108V17.0665H49.3544V24.1075C49.3544 27.3257 51.2334 29.2479 54.0196 29.2479C55.6611 29.2479 56.9138 28.5136 57.6697 27.4769V29.1184H61.3631V17.0665Z" fill="#5A5A5A"/>
<path d="M75.8087 23.0924C75.8087 19.2695 73.0657 16.8937 69.5451 16.8937C66.0246 16.8937 63.2816 19.2695 63.2816 23.0924C63.2816 26.9153 65.9598 29.2911 69.5019 29.2911C73.0441 29.2911 75.8087 26.9153 75.8087 23.0924ZM67.0397 23.0924C67.0397 21.0406 68.2276 20.0902 69.5451 20.0902C70.841 20.0902 72.0505 21.0406 72.0505 23.0924C72.0505 25.1227 70.7978 26.0946 69.5019 26.0946C68.1628 26.0946 67.0397 25.1227 67.0397 23.0924Z" fill="#5A5A5A"/>
<path d="M86.0834 29.1184H89.7551V22.0773C89.7551 18.8375 87.8977 16.9369 85.1115 16.9369C83.47 16.9369 82.2173 17.6496 81.4614 18.6647V17.0665H77.768V29.1184H81.4614V22.574C81.4614 20.9326 82.3685 20.0254 83.7724 20.0254C85.1763 20.0254 86.0834 20.9326 86.0834 22.574V29.1184Z" fill="#5A5A5A"/>
<path d="M91.5873 23.0708C91.5873 26.8937 93.9415 29.2911 96.9005 29.2911C98.6932 29.2911 99.9459 28.4488 100.615 27.3905V29.0968C100.615 31.1054 99.5139 31.8613 98.11 31.8613C96.8141 31.8613 95.9286 31.2998 95.691 30.3711H92.0409C92.3864 33.2436 94.6974 35.0579 98.2828 35.0579C102.451 35.0579 104.309 32.3149 104.309 29.0968V17.0665H100.615V18.7727C99.9459 17.6712 98.6932 16.8937 96.9005 16.8937C93.9415 16.8937 91.5873 19.2695 91.5873 23.0708ZM100.615 23.0924C100.615 25.0147 99.3843 26.073 97.9804 26.073C96.5981 26.073 95.3454 24.9931 95.3454 23.0708C95.3454 21.1486 96.5981 20.1118 97.9804 20.1118C99.3843 20.1118 100.615 21.1702 100.615 23.0924Z" fill="#5A5A5A"/>
</svg>
